<svg xmlns="http://www.w3.org/2000/svg" xmlns:xlink="http://www.w3.org/1999/xlink" viewBox="0 0 33.6 19.6"><defs><clipPath id="a"><rect width="33.6" height="19.58" fill="none"></rect></clipPath></defs><title>AUS</title><g clip-path=""><rect width="33.6" height="19.58" fill="#180087"></rect><polygon points="8.8 12 9.3 13.6 10.9 13 10 14.4 11.4 15.2 9.8 15.4 10 17 8.8 15.8 7.7 17 7.9 15.4 6.2 15.2 7.7 14.4 6.8 13 8.3 13.6 8.8 12" fill="#fff"></polygon><polygon points="26.5 14.9 26.7 15.6 27.5 15.3 27 16 27.7 16.4 26.9 16.5 27 17.3 26.5 16.7 25.9 17.3 26.1 16.5 25.3 16.4 25.9 16 25.5 15.3 26.2 15.6 26.5 14.9" fill="#fff"></polygon><polygon points="22.1 7.9 22.3 8.6 23.1 8.3 22.6 9 23.3 9.4 22.5 9.5 22.6 10.3 22.1 9.7 21.5 10.3 21.6 9.5 20.8 9.4 21.5 9 21.1 8.3 21.8 8.6 22.1 7.9" fill="#fff"></polygon><polygon points="26.5 3.1 26.7 3.8 27.5 3.6 27 4.2 27.7 4.6 26.9 4.7 27 5.5 26.5 4.9 25.9 5.5 26.1 4.7 25.3 4.6 25.9 4.2 25.5 3.6 26.2 3.8 26.5 3.1" fill="#fff"></polygon><polygon points="30.4 6.7 30.7 7.4 31.4 7.2 31 7.8 31.6 8.2 30.9 8.3 31 9.1 30.4 8.5 29.9 9.1 30 8.3 29.2 8.2 29.9 7.8 29.4 7.2 30.2 7.4 30.4 6.7" fill="#fff"></polygon><polygon points="28.3 10.2 28.4 10.7 29 10.7 28.6 11.1 28.7 11.6 28.3 11.3 27.8 11.6 27.9 11.1 27.6 10.7 28.1 10.7 28.3 10.2" fill="#fff"></polygon><polygon points="7.4 0 7.4 2.9 0 2.9 0 5.9 7.4 5.9 7.4 8.8 10.3 8.8 10.3 5.9 17.7 5.9 17.7 2.9 10.3 2.9 10.3 0 7.4 0" fill="#fff"></polygon><polygon points="0 0 0 1 15.7 8.8 17.7 8.8 17.7 7.8 2 0 0 0" fill="#fff"></polygon><polygon points="15.7 0 0 7.8 0 8.8 2 8.8 17.7 1 17.7 0 15.7 0" fill="#fff"></polygon><polygon points="7.9 0 7.9 3.5 0 3.5 0 5.3 7.9 5.3 7.9 8.8 9.7 8.8 9.7 5.3 17.7 5.3 17.7 3.5 9.7 3.5 9.7 0 7.9 0" fill="#ea0020"></polygon><path d="M0,0V.7L4.6,2.9H5.9ZM16.3,0,10.5,2.9h1.3L17.7,0Z" fill="#ea0020"></path><path d="M5.9,5.9,0,8.8H1.3L7.2,5.9Zm5.9,0,5.9,2.9V8.2L13.1,5.9Z" fill="#ea0020"></path></g></svg>