<svg xmlns="http://www.w3.org/2000/svg" xmlns:xlink="http://www.w3.org/1999/xlink" viewBox="0 0 33.6 19.6"><defs><clipPath id="a"><rect width="33.6" height="19.58" fill="none"></rect></clipPath></defs><title>CAN</title><g clip-path=""><rect width="7.9" height="19.58" fill="#ea0020"></rect><rect x="25.7" width="7.9" height="19.58" fill="#ea0020"></rect><rect x="7.9" width="17.8" height="19.58" fill="#fff"></rect><g clip-path=""><path d="M16.8,2.5,15.6,4.8c-.1.2-.4.2-.6.1l-.8-.5.6,3.5c.1.6-.3.6-.5.4L12.8,6.6l-.2.9a.3.3,0,0,1-.3.2l-1.9-.4.5,1.9c.1.4.2.6-.1.7l-.7.3,3.2,2.7a.4.4,0,0,1,.1.5l-.3,1,3.2-.4c.1,0,.3.1.3.2v3.5H17V14c0-.1.1-.2.2-.2l3.2.4-.3-1a.5.5,0,0,1,.1-.5l3.2-2.7-.7-.3c-.3-.1-.2-.3-.1-.7l.5-1.9-1.9.4a.3.3,0,0,1-.3-.2l-.2-.9L19.3,8.3c-.2.3-.6.3-.5-.4l.6-3.5-.8.5c-.2.1-.5.2-.6-.1Z" fill="#ea0020"></path></g></g></svg>