<svg xmlns="http://www.w3.org/2000/svg" xmlns:xlink="http://www.w3.org/1999/xlink" viewBox="0 0 33.6 19.6"><defs><clipPath id="a"><rect width="33.6" height="19.58" fill="none"></rect></clipPath></defs><title>GBR</title><g clip-path=""><rect width="33.6" height="19.58" fill="#fff"></rect><polygon points="22.5 7.1 33.6 0.9 33.6 0 32.8 0 20.2 7.1 22.5 7.1" fill="#bd0034"></polygon><polygon points="21.9 12.9 33.6 19.4 33.6 18.1 24.3 12.9 21.9 12.9" fill="#bd0034"></polygon><polygon points="0 1.5 9.9 7.1 12.3 7.1 0 0.2 0 1.5" fill="#bd0034"></polygon><polygon points="11.7 12.9 0 19.5 0 19.6 2.1 19.6 14.1 12.9 11.7 12.9" fill="#bd0034"></polygon><polygon points="31.3 0 19.5 0 19.5 6.6 31.3 0" fill="#1a237b"></polygon><polygon points="14.3 0 2.6 0 14.3 6.6 14.3 0" fill="#1a237b"></polygon><polygon points="33.6 7.1 33.6 2.6 25.6 7.1 33.6 7.1" fill="#1a237b"></polygon><polygon points="33.6 17.3 33.6 12.9 25.6 12.9 33.6 17.3" fill="#1a237b"></polygon><polygon points="3.3 19.6 14.3 19.6 14.3 13.4 3.3 19.6" fill="#1a237b"></polygon><polygon points="19.5 19.6 30.6 19.6 19.5 13.4 19.5 19.6" fill="#1a237b"></polygon><polygon points="0 12.9 0 17.5 8.2 12.9 0 12.9" fill="#1a237b"></polygon><polygon points="0 7.1 8.2 7.1 0 2.4 0 7.1" fill="#1a237b"></polygon><polygon points="15.4 0 15.4 8.2 0 8.2 0 11.7 15.4 11.7 15.4 19.6 18.5 19.6 18.5 11.7 33.6 11.7 33.6 8.2 18.5 8.2 18.5 0 15.4 0" fill="#bd0034"></polygon></g></svg>